<?xml version="1.0" standalone="no"?>
<!DOCTYPE svg PUBLIC "-//W3C//DTD SVG 20010904//EN"
 "http://www.w3.org/TR/2001/REC-SVG-20010904/DTD/svg10.dtd">
<svg version="1.0" xmlns="http://www.w3.org/2000/svg"
 width="360.000000pt" height="360.000000pt" viewBox="0 0 360.000000 360.000000"
 preserveAspectRatio="xMidYMid meet">
<metadata>
Created by potrace 1.14, written by Peter Selinger 2001-2017
</metadata>
<g transform="translate(0.000000,360.000000) scale(0.100000,-0.100000)"
fill="#000000" stroke="none">
<path d="M1690 3523 c-208 -25 -352 -79 -545 -204 -100 -64 -237 -199 -304
-298 -95 -139 -185 -349 -205 -476 -11 -71 -14 -239 -5 -295 5 -30 11 -74 14
-96 12 -101 45 -213 130 -448 106 -292 198 -395 355 -399 75 -2 79 -15 11 -35
-47 -15 -62 -32 -66 -74 -3 -38 42 -169 81 -237 61 -105 192 -302 261 -393 40
-53 73 -101 73 -107 0 -5 4 -11 8 -13 5 -1 19 -19 33 -39 36 -53 211 -279 236
-306 12 -13 27 -23 33 -23 15 0 54 40 188 199 211 249 367 463 517 712 83 137
222 397 252 474 7 17 22 55 34 85 130 332 150 494 71 597 -26 35 -150 103
-188 103 -39 0 -37 19 3 25 73 12 178 47 215 71 80 51 92 111 55 254 -36 138
-54 185 -104 282 -174 331 -460 548 -823 624 -68 14 -268 25 -330 17z"/>
</g>
</svg>
